name C:\Users\u0101727\Documents\MyRepositories\upper-imu-dc\OpenSim\subject0\MA\ResultsMA\grid_4nodes_9dim\angles_5.mot
datacolumns 10
datarows 42
range 575.01000000 575.42000000
endheader 
time	clav_prot	clav_elev	scapula_abduction	scapula_elevation	scapula_upward_rot	scapula_winging	plane_elv	shoulder_elv	axial_rot	
        575.01000000	        -50.00000000	         20.00000000	        -21.66666667	          3.33333333	          0.00000000	        -20.00000000	         30.00000000	        100.00000000	        -90.00000000	
        575.02000000	        -38.33333333	         20.00000000	        -21.66666667	          3.33333333	          0.00000000	        -20.00000000	         30.00000000	        100.00000000	        -90.00000000	
        575.03000000	        -26.66666667	         20.00000000	        -21.66666667	          3.33333333	          0.00000000	        -20.00000000	         30.00000000	        100.00000000	        -90.00000000	
        575.04000000	        -15.00000000	         20.00000000	        -21.66666667	          3.33333333	          0.00000000	        -20.00000000	         30.00000000	        100.00000000	        -90.00000000	
        575.05000000	        -50.00000000	        -10.00000000	         -3.33333333	          3.33333333	          0.00000000	        -20.00000000	         30.00000000	        100.00000000	        -90.00000000	
        575.06000000	        -38.33333333	        -10.00000000	         -3.33333333	          3.33333333	          0.00000000	        -20.00000000	         30.00000000	        100.00000000	        -90.00000000	
        575.07000000	        -26.66666667	        -10.00000000	         -3.33333333	          3.33333333	          0.00000000	        -20.00000000	         30.00000000	        100.00000000	        -90.00000000	
        575.08000000	        -15.00000000	        -10.00000000	         -3.33333333	          3.33333333	          0.00000000	        -20.00000000	         30.00000000	        100.00000000	        -90.00000000	
        575.09000000	        -50.00000000	          0.00000000	         -3.33333333	          3.33333333	          0.00000000	        -20.00000000	         30.00000000	        100.00000000	        -90.00000000	
        575.10000000	        -38.33333333	          0.00000000	         -3.33333333	          3.33333333	          0.00000000	        -20.00000000	         30.00000000	        100.00000000	        -90.00000000	
        575.11000000	        -26.66666667	          0.00000000	         -3.33333333	          3.33333333	          0.00000000	        -20.00000000	         30.00000000	        100.00000000	        -90.00000000	
        575.12000000	        -15.00000000	          0.00000000	         -3.33333333	          3.33333333	          0.00000000	        -20.00000000	         30.00000000	        100.00000000	        -90.00000000	
        575.13000000	        -50.00000000	         10.00000000	         -3.33333333	          3.33333333	          0.00000000	        -20.00000000	         30.00000000	        100.00000000	        -90.00000000	
        575.14000000	        -38.33333333	         10.00000000	         -3.33333333	          3.33333333	          0.00000000	        -20.00000000	         30.00000000	        100.00000000	        -90.00000000	
        575.15000000	        -26.66666667	         10.00000000	         -3.33333333	          3.33333333	          0.00000000	        -20.00000000	         30.00000000	        100.00000000	        -90.00000000	
        575.16000000	        -15.00000000	         10.00000000	         -3.33333333	          3.33333333	          0.00000000	        -20.00000000	         30.00000000	        100.00000000	        -90.00000000	
        575.17000000	        -50.00000000	         20.00000000	         -3.33333333	          3.33333333	          0.00000000	        -20.00000000	         30.00000000	        100.00000000	        -90.00000000	
        575.18000000	        -38.33333333	         20.00000000	         -3.33333333	          3.33333333	          0.00000000	        -20.00000000	         30.00000000	        100.00000000	        -90.00000000	
        575.19000000	        -26.66666667	         20.00000000	         -3.33333333	          3.33333333	          0.00000000	        -20.00000000	         30.00000000	        100.00000000	        -90.00000000	
        575.20000000	        -15.00000000	         20.00000000	         -3.33333333	          3.33333333	          0.00000000	        -20.00000000	         30.00000000	        100.00000000	        -90.00000000	
        575.21000000	        -50.00000000	        -10.00000000	         15.00000000	          3.33333333	          0.00000000	        -20.00000000	         30.00000000	        100.00000000	        -90.00000000	
        575.22000000	        -38.33333333	        -10.00000000	         15.00000000	          3.33333333	          0.00000000	        -20.00000000	         30.00000000	        100.00000000	        -90.00000000	
        575.23000000	        -26.66666667	        -10.00000000	         15.00000000	          3.33333333	          0.00000000	        -20.00000000	         30.00000000	        100.00000000	        -90.00000000	
        575.24000000	        -15.00000000	        -10.00000000	         15.00000000	          3.33333333	          0.00000000	        -20.00000000	         30.00000000	        100.00000000	        -90.00000000	
        575.25000000	        -50.00000000	          0.00000000	         15.00000000	          3.33333333	          0.00000000	        -20.00000000	         30.00000000	        100.00000000	        -90.00000000	
        575.26000000	        -38.33333333	          0.00000000	         15.00000000	          3.33333333	          0.00000000	        -20.00000000	         30.00000000	        100.00000000	        -90.00000000	
        575.27000000	        -26.66666667	          0.00000000	         15.00000000	          3.33333333	          0.00000000	        -20.00000000	         30.00000000	        100.00000000	        -90.00000000	
        575.28000000	        -15.00000000	          0.00000000	         15.00000000	          3.33333333	          0.00000000	        -20.00000000	         30.00000000	        100.00000000	        -90.00000000	
        575.29000000	        -50.00000000	         10.00000000	         15.00000000	          3.33333333	          0.00000000	        -20.00000000	         30.00000000	        100.00000000	        -90.00000000	
        575.30000000	        -38.33333333	         10.00000000	         15.00000000	          3.33333333	          0.00000000	        -20.00000000	         30.00000000	        100.00000000	        -90.00000000	
        575.31000000	        -26.66666667	         10.00000000	         15.00000000	          3.33333333	          0.00000000	        -20.00000000	         30.00000000	        100.00000000	        -90.00000000	
        575.32000000	        -15.00000000	         10.00000000	         15.00000000	          3.33333333	          0.00000000	        -20.00000000	         30.00000000	        100.00000000	        -90.00000000	
        575.33000000	        -50.00000000	         20.00000000	         15.00000000	          3.33333333	          0.00000000	        -20.00000000	         30.00000000	        100.00000000	        -90.00000000	
        575.34000000	        -38.33333333	         20.00000000	         15.00000000	          3.33333333	          0.00000000	        -20.00000000	         30.00000000	        100.00000000	        -90.00000000	
        575.35000000	        -26.66666667	         20.00000000	         15.00000000	          3.33333333	          0.00000000	        -20.00000000	         30.00000000	        100.00000000	        -90.00000000	
        575.36000000	        -15.00000000	         20.00000000	         15.00000000	          3.33333333	          0.00000000	        -20.00000000	         30.00000000	        100.00000000	        -90.00000000	
        575.37000000	        -50.00000000	        -10.00000000	        -40.00000000	         10.00000000	          0.00000000	        -20.00000000	         30.00000000	        100.00000000	        -90.00000000	
        575.38000000	        -38.33333333	        -10.00000000	        -40.00000000	         10.00000000	          0.00000000	        -20.00000000	         30.00000000	        100.00000000	        -90.00000000	
        575.39000000	        -26.66666667	        -10.00000000	        -40.00000000	         10.00000000	          0.00000000	        -20.00000000	         30.00000000	        100.00000000	        -90.00000000	
        575.40000000	        -15.00000000	        -10.00000000	        -40.00000000	         10.00000000	          0.00000000	        -20.00000000	         30.00000000	        100.00000000	        -90.00000000	
        575.41000000	        -50.00000000	          0.00000000	        -40.00000000	         10.00000000	          0.00000000	        -20.00000000	         30.00000000	        100.00000000	        -90.00000000	
        575.42000000	        -38.33333333	          0.00000000	        -40.00000000	         10.00000000	          0.00000000	        -20.00000000	         30.00000000	        100.00000000	        -90.00000000	
